<svg xmlns="http://www.w3.org/2000/svg" width="24" height="24" viewBox="0 0 24 24" fill="none" stroke="currentColor" stroke-width="1.5">
  <path stroke-linecap="round" stroke-linejoin="round" d="m9 9 10.5-3m0 6.553v3.75a2.25 2.25 0 0 1-1.632 2.163l-1.32.377a1.803 1.803 0 1 1-.99-3.467l2.31-.66a2.25 2.25 0 0 0 1.632-2.163Zm0 0V4.846a1.5 1.5 0 0 0-1.078-1.44l-6.75-1.929A1.5 1.5 0 0 0 6 2.919v12.634a2.25 2.25 0 0 1-1.632 2.163l-1.32.377a1.803 1.803 0 1 1-.99-3.467l2.31-.66A2.25 2.25 0 0 0 6 11.803V9"/>
</svg>
